<?xml version="1.0" encoding="utf-8"?>
<!-- Generator: Adobe Illustrator 23.0.0, SVG Export Plug-In . SVG Version: 6.00 Build 0)  -->
<svg version="1.1" id="Capa_1" xmlns="http://www.w3.org/2000/svg" xmlns:xlink="http://www.w3.org/1999/xlink" x="0px" y="0px"
	 viewBox="0 0 200 200" style="enable-background:new 0 0 200 200;" xml:space="preserve">
<g>
	<path id="Path_110" d="M34.2,84.2c-15.4-2.7-23.9-12.6-24.1-27.8c-0.1-4.8-0.4-9.8,0.3-14.5c1.8-12.6,10.8-21.1,23.4-22
		c7.1-0.4,14.1-0.3,21.2,0.3c5.2,0.3,9.4,3.4,13.4,6.6c2.1,1.7,4.2,3.3,6.6,4.6c9,4.7,15.6,12.9,18.3,22.7c0.2,0.7,0.4,1.3,0.4,1.4
		c5.9-1.1,11.5-2.8,17.3-3.1c11.3-0.6,21,3.8,29,11.6c13.7,13.4,27,27.1,40.8,40.4c12.4,12,12,33-0.1,44.4
		c-5.6,5.3-10.7,11.2-16.8,15.8c-11.7,8.9-28.2,7.8-38.7-2.5c-14.3-13.7-28.2-27.9-42.2-42c-6.1-6.2-10-14.2-11-22.9
		c-1-8,0.4-16.1,4-23.2c-2.5-2-4.2-1.8-6.3,0.8c-3.8,4.9-9.1,7.6-15.2,8.6c-1.2,0.2-2.4,0.4-3.9,0.6c0,6.1,0.1,12.2-0.1,18.3
		c-0.2,1.9-0.7,3.7-1.5,5.4c-1.6,4.3-3.2,8.3-0.4,12.9c3.4,5.5,3.2,11.4,0.4,17c-1.8,3.8-2.5,8.1-2.1,12.3c0.1,0.9,0.4,1.7,1,2.4
		c3.8,4.7,3.4,9.6,1.1,14.7c-2,4.3-4,8.5-6.3,13.3c-0.6-0.7-1.1-1.5-1.6-2.3c-1.7-3.3-3.4-6.7-5.1-10c-2.9-5.5-2.9-10.5,0.5-16.2
		c1.6-2.8,1-7.5,0.1-11c-1-4.2-3-8-2.8-12.5c0-3.1,0.9-6.2,2.5-8.8c2.2-3.2,1.5-9.1-0.7-12.2c-1-1.3-1.5-2.9-1.6-4.6
		C34.1,96.7,34.2,90.5,34.2,84.2z M20.2,32.8c-3.5,3.6-4.8,8.1-4.9,13c-0.1,4.6,0,9.1,0.2,13.7c0.5,9.9,9.4,18.9,19.1,19.1
		c5.6,0.1,11.1,0.1,16.7-0.1c6.2-0.2,12-3.2,15.7-8.3c-3.7-4.7-7.3-8.9-10.3-13.4c-3.1-4.8-4.5-10.5-4.1-16.1
		c-8.7,0.3-17,0.7-25.3,0.9c-5.8,0.2-8.1-2.7-6.7-8.4c1.9-1,3.8-2.7,5.7-2.8C37.1,29.6,48.1,29.3,59,29c3-0.1,5.5,2.2,5.7,5.2
		c0.2,3.1-2.1,5.7-5.2,6c-1.1,0.1-2.2,0.1-3.1,0.2c-2.1,8,5.1,22.1,13.4,26c0.4-3.3,1.1-6.5,1.2-9.7c0.2-3.9-0.1-7.9-0.2-11.8
		c-0.3-9.5-6.5-17.9-15.9-19.1c-8-1-16.3-0.5-24.4,0.2C26.3,26.3,22.6,29,20.2,32.8z M119.7,134.8c2.3-1.3,5-2.1,6.8-3.9
		c7.8-7.5,15.4-15.2,23-22.9c4.4-4.5,4.5-10.2,0.4-14.3c-3.8-3.8-9.7-3.4-14,0.9c-7.4,7.4-14.9,14.8-22.3,22.3
		c-0.8,0.8-1.5,1.6-2.1,2.5c-2,2.8-2.2,6.5-0.5,9.5C112.7,132.3,115.5,134.1,119.7,134.8L119.7,134.8z M97.1,112.2
		c2.2-1.3,4.8-2.1,6.5-3.8c7.9-7.6,15.7-15.4,23.4-23.4c1.5-1.7,2.6-3.8,3-6.1c0.8-4-1.4-7.6-5-9.5c-3.6-1.8-8.1-1.1-11,1.7
		c-4.5,4.2-8.8,8.7-13.1,13c-4,4-8.1,8-11.8,12.2c-2.6,2.9-2.6,6.5-0.9,9.9C89.9,109.7,92.7,111.6,97.1,112.2z M142.1,156.5
		c2.6,0.3,5-1.2,7-3.3c7.7-7.6,15.3-15.3,22.9-23c4.3-4.4,4.4-10.2,0.5-14c-3.9-3.8-9.9-3.5-14.1,0.7c-6.8,6.7-13.5,13.4-20.2,20.2
		c-1.5,1.5-3,3-4.3,4.7c-2.2,2.8-2.5,6.7-0.7,9.7C134.9,154.8,138.4,156.8,142.1,156.5L142.1,156.5z M74.6,34.7
		c2.3,11.8,3.1,23.2-0.4,34.6c2.3,1.9,3.9,1.4,5.8-1.1c2-2.6,4.4-5,7-7.2c4.3-3.6,4.4-3.5,2.4-8.9c-0.1-0.4-0.3-0.8-0.4-1.1
		C85.9,44.1,81.5,38.5,74.6,34.7z M55.5,32.9c-2.4,0-4.7-0.1-7,0c-7.5,0.3-14.9,0.5-22.4,1c-0.9,0.1-1.8,1.4-2.7,2.1
		c0.9,0.7,1.9,1.4,2.9,2c0.5,0.2,1.2,0,1.8,0c7.3-0.3,14.5-0.7,21.8-0.7C53.1,37.2,54.6,35.9,55.5,32.9z"/>
</g>
</svg>
