<?xml version="1.0" encoding="utf-8"?>
<!-- Generator: Adobe Illustrator 23.0.0, SVG Export Plug-In . SVG Version: 6.00 Build 0)  -->
<svg version="1.1" id="Capa_1" xmlns="http://www.w3.org/2000/svg" xmlns:xlink="http://www.w3.org/1999/xlink" x="0px" y="0px"
	 viewBox="0 0 200 200" style="enable-background:new 0 0 200 200;" xml:space="preserve">
<g>
	<path id="Path_112" d="M190.5,100.3c0.1,49.6-40.1,89.9-89.8,90c-49.9,0.1-90.4-40.3-90.2-90c0-49.7,40.3-90,90-90
		C150.2,10.4,190.5,50.6,190.5,100.3L190.5,100.3z M100.5,185.1c46.4,0,84.5-38.1,84.6-84.5c0.2-46.4-37.8-84.5-84.4-84.6
		c-46.6-0.2-84.5,37.4-84.7,84c0,0.2,0,0.4,0,0.6C16.1,147.1,54.1,185.1,100.5,185.1z"/>
	<path id="Path_113" d="M31.7,100.2c0.4-38.3,31.5-69,69.6-68.5c38,0.4,68.5,31.5,68.1,69.5c0,0,0,0,0,0
		c-0.4,37.9-31.9,68.8-69.5,68.2C62,168.7,31.3,137.5,31.7,100.2z M96.9,39.2C88.2,39.7,79,41.7,70.7,47c-6.3,4-6.9,8.4-1.1,13.1
		c4.2,3.4,8.7,6.3,13.4,8.9c7.2,4,15.1,3.7,21.5-0.8c6-4.2,6.5-11.6,5.8-18.5C109.6,41.3,106.2,38.8,96.9,39.2z M143.6,114.6
		c-8.9,0-17.5,1.2-23.5,8.5c-2.2,2.7-4.3,6.8-4.1,10.2c0.4,6.3,3.5,12,8.4,15.9c3.3,2.7,7,4.4,11,1.7c9.8-6.3,17.4-15.6,21.5-26.5
		c1.8-4.6-0.2-7.9-5-9C149.1,115,146.3,114.7,143.6,114.6L143.6,114.6z M38.5,98.8c0.8,5.3,1.2,10.1,2.2,14.7
		c1.3,5.4,5.5,7.6,10.1,4.5c6.1-3.9,11.7-8.5,16.7-13.6c5.1-5.5,5.9-16.4,2.1-20.7c-4.9-5.5-11.1-8.8-18.7-8.8
		c-4.5,0-7.8,2.1-8.8,6.7C40.8,87.4,39.7,93.3,38.5,98.8z M141.6,97.2c4.3-1.4,8.8-2.4,12.8-4.4c3.5-1.8,6.1-4.9,4.9-9.4
		c-2.8-11.6-9.5-21.9-19-29.2c-3.6-2.8-8.1-2.1-9.6,2.2c-2.6,7.3-5.7,15-5.6,22.5C125.2,88.9,131.1,97.9,141.6,97.2L141.6,97.2z
		 M94.8,161.4c4.3,0.2,8.1-2.5,7.4-6.7c-2.1-11.6-4.9-23.2-17-28.8c-3.1-1.4-7.5-2.2-10.5-1c-6.1,2.4-11,7.2-13.4,13.3
		c-2,4.7-1.1,8.8,2.7,11.5C73,156.5,83.7,160.6,94.8,161.4L94.8,161.4z M100.5,89.7c-5.9-0.1-10.8,4.6-10.9,10.5c0,0.1,0,0.1,0,0.2
		c0,6,4.7,10.9,10.7,11c6.1,0,11.1-4.9,11.3-11C111.4,94.4,106.5,89.6,100.5,89.7L100.5,89.7z M118.3,83c0-3.4-2.7-6.2-6-6.3
		c-3.4-0.1-6.3,2.5-6.5,5.9c-0.1,3.5,2.7,6.4,6.2,6.6c0.1,0,0.1,0,0.2,0C115.5,89.1,118.2,86.4,118.3,83L118.3,83z M101.4,115
		c-3.4,0.2-6,3-6.2,6.3c0,3.5,2.9,6.3,6.3,6.3c3.5,0,6.3-2.9,6.3-6.3c0-0.1,0-0.1,0-0.2C107.6,117.7,104.8,115.1,101.4,115z
		 M93.6,84c-0.1-3.4-2.8-6.1-6.2-6.2c-3.5,0-6.3,2.7-6.4,6.2c0,3.5,2.7,6.3,6.2,6.4c3.5,0,6.3-2.7,6.4-6.2
		C93.6,84.1,93.6,84,93.6,84z M87.1,107.9c0-3.4-2.7-6.1-6-6.2c0,0,0,0-0.1,0c-3.3-0.1-6.1,2.5-6.3,5.8c0,0.1,0,0.1,0,0.2
		c-0.1,3.4,2.5,6.3,5.9,6.4c0.1,0,0.3,0,0.4,0C84.4,114,87.1,111.2,87.1,107.9L87.1,107.9z M120.9,99.8c-3.4,0-6.2,2.7-6.2,6.1
		c0,3.4,2.7,6.2,6.1,6.2c3.4,0,6.2-2.7,6.2-6.1c0,0,0,0,0-0.1c0.1-3.3-2.4-6-5.7-6.1C121.2,99.8,121,99.8,120.9,99.8L120.9,99.8z"/>
	<path id="Path_114" d="M100.3,28.4c39.7,0,71.8,32.2,71.8,71.9c0,39.7-32.2,71.8-71.9,71.8c-39.7,0-71.8-32.2-71.8-71.8
		C28.5,60.5,60.7,28.4,100.3,28.4 M100.3,10.5c-49.5,0-89.7,40.2-89.7,89.7c0,49.5,40.2,89.7,89.7,89.7c49.5,0,89.7-40.2,89.7-89.7
		C190,50.7,149.9,10.5,100.3,10.5z"/>
</g>
</svg>
