<?xml version="1.0" encoding="utf-8"?>
<!-- Generator: Adobe Illustrator 23.0.0, SVG Export Plug-In . SVG Version: 6.00 Build 0)  -->
<svg version="1.1" id="Capa_1" xmlns="http://www.w3.org/2000/svg" xmlns:xlink="http://www.w3.org/1999/xlink" x="0px" y="0px"
	 viewBox="0 0 200 200" style="enable-background:new 0 0 200 200;" xml:space="preserve">
<path id="Path_111" d="M137.4,84.2c-0.4-1-0.8-1.9-1.3-3c-7.7,6.5-15.3,12.8-22.8,19.1c-2.9,2.5-5.8,5-8.9,7.4
	c-1.4,1.1-1.8,2.1-1.3,3.8c1.3,4.1,0.4,8.1-2.6,11c-2.3,2.3-1.9,4-0.5,6.2c0.5,0.7,0.8,1.5,1.3,2.4c0.7-0.1,1.5-0.5,2.1-0.3
	c0.8,0.2,1.6,0.7,2.1,1.5c0.2,0.4-0.6,1.8-1.1,1.9c-2.6,0.8-5.2,1.4-7.8,1.8c-0.6,0.1-1.9-1.1-1.8-1.2c0.7-1.2,1.4-2.4,2.2-3.5
	c-1.2-4.3-1.3-4.3-6-4.2c-2.7,0.1-5.3,0-8.3,0c-3.8,12.7-11.7,22.1-24.6,26.7c-9.4,3.3-18.9,3.2-28.2-0.9
	c-18.4-8.1-27.4-28.2-21.1-46.8C12.5,95.2,19.9,87.5,30.5,83c10.7-4.5,21.3-3.8,31.8,1.1c3.9-6.3,8.1-12.1,11.3-18.5
	c1.1-2.2-0.4-5.6-0.8-8.9c-1.3,0.7-1.9,1.1-2.5,1.5c-2.8,2-5.8,2.9-8.8,0.6c-3.4-2.5-5.5-5.9-5-10.2c0.3-2.7,2.7-4.7,5.4-4.6
	c8.6-0.1,17.1-0.1,25.7,0c3,0.1,5.4,2.6,5.3,5.6c0,0.2,0,0.3,0,0.5c-0.4,3.9-3.9,6.7-7.8,6.3c0,0,0,0-0.1,0
	c-1.7-0.2-3.3-0.8-5.4-1.3c0.7,2.6,1.3,4.7,2,7.1c15.2,0,30.1,0,45.1,0c0.5,0,1-0.1,1.6-0.2c-0.7-6.1-0.3-6.8,5.8-8.3
	c5.6-1.3,10.9-1.3,14.9,3.6c5.1,6.2,2.7,13.9-5.6,16.9c-0.7-2.1-1.4-4.1-2.2-6.4c2-1.3,4.3-2.8,2.5-5.5c-1.8-2.8-4.4-2.5-7.4-1.4
	c2.6,6.6,5,13,7.7,19.4c0.2,0.6,2.2,0.8,3.2,0.6c11.5-2.1,22,0,31.2,7.2c12.4,9.9,17.5,22.9,14,38.4c-3.5,15.5-13.7,25.1-29.2,28.6
	c-17.9,4.2-36.5-5.5-43.6-22.4c-7.1-16.7-1-36,14.5-46.2C134.9,85.8,136,85.1,137.4,84.2z M83.1,69.2c0.2,1.2,0.3,2,0.5,2.8
	c2,8,4.3,15.8,6.1,23.9c0.9,3.9,2.2,6.7,6.5,7c1.1,0.1,2.5,0.1,3.3-0.6c10.7-8.8,21.3-17.8,31.9-26.7c1-0.9,2.2-1.5,1.4-3.4
	c-0.8-1.7-1.4-3.1-3.8-3c-8.5,0.1-17.1,0-25.6-0.1C96.7,69.2,90.1,69.2,83.1,69.2z M144.3,101.4c-9.4,6-12.2,17.5-6.9,26.6
	c5.6,9.5,17.7,12.8,27.4,7.4c9.3-5.2,12.8-16.8,8-26.4c-4.2-8.2-14.7-13.1-21.5-9.9c0.8,2,1.5,4,2.4,5.9c1.5,3.5,2.3,7.2,5.4,9.9
	c1.9,1.6,1.7,4.1,0.2,6.1c-1.6,2-3.7,2.9-6.2,2c-2.5-0.9-3.6-2.9-3.6-5.5c0-1,0.3-2.2,0-3.1C147.8,110.2,146.1,106,144.3,101.4z
	 M52.4,99.7c-9.4-4.1-21.9,1.2-25.8,10.8c-4.2,10.1,0.7,21.7,10.8,25.8c0.2,0.1,0.4,0.2,0.6,0.2c10.1,3.7,21.9-1.1,25.2-10.5
	c-5.8-0.2-11.6-0.4-17.3-0.7c-4.7-0.3-7.4-2.6-7.9-6.4c-0.4-3.4,2.1-6.6,6.1-8c0.9-0.3,1.7-0.8,2.2-1.5
	C48.3,106.4,50.3,103.1,52.4,99.7z M141.5,94.6c-12.5,6.5-17.5,22.5-11.4,35.2c6.4,13.3,23,19,36.7,12.8c13.1-6,19-22.1,13.1-35.6
	c-5.2-11.9-20.5-19.2-31.2-15c0,3,2,2.8,4.1,2.7c15.9-0.7,27.5,11.6,25.4,26.9c-1.4,10.1-9.7,18.2-20.4,19.7
	c-12.8,1.8-24.7-7.1-26.5-19.9c-1.1-7.8,1.8-15.6,7.7-20.8c1.2-1,2.5-2,3.7-3C142.3,96.5,141.9,95.6,141.5,94.6z M70.9,126.6
	c-2.4-0.8-3.5,0-4.6,2.1c-4.7,9.3-15.2,14.5-25.1,12.8c-13.3-2.3-22.2-15.3-19.2-28.2c2.8-12.8,15.5-20.8,28.2-18
	c0.5,0.1,1,0.2,1.5,0.4c2.5,0.7,3.8,0.5,4.3-2.1c-8.5-4.8-20.8-2.5-29.4,5.1c-8.6,7.7-11.2,19.9-6.6,30.5
	c4.9,11.2,15.9,17.1,29.4,15.9C58.9,143.9,68.9,135.5,70.9,126.6L70.9,126.6z M84,102.9c-2.5-9.4-4.8-18.5-7.4-28.2
	c-2.9,4.7-5.5,8.8-7.8,12.3c4.3,5.6,8.4,10.9,12.8,16.5C81.9,103.4,82.8,103.2,84,102.9L84,102.9z M70,105.8c-2.5-3.2-4.7-6-7.1-9.1
	c-1,1.6-1.5,2.5-2.4,3.9C64.1,101.4,63.8,107.5,70,105.8z M52.2,121.2c0,0.4,0,0.8,0.1,1.2c3.9,0,7.7,0.1,11.6-0.1
	c0.5,0,0.9-0.9,1.3-1.4c-0.1-0.2-0.3-0.5-0.4-0.7C60.5,120.5,56.4,120.9,52.2,121.2L52.2,121.2z M64.7,112.8
	c-1.6-2.1-8.4-1.3-11.9,0.9C56.8,113.4,60.5,113.1,64.7,112.8L64.7,112.8z M58.7,103.4l-3.4,5.4c2.7-0.6,4.5-1,6.9-1.5
	C60.8,105.9,59.9,104.8,58.7,103.4z M72.3,120.1c-3.3-0.8-3.4-0.7-3.3,2.3C71.1,123.1,72.7,123.2,72.3,120.1z M67.6,110.2
	c0.7,3.2,2.3,2.5,4,1.7C71.5,108.4,69.5,109.8,67.6,110.2z"/>
</svg>
