<?xml version="1.0" encoding="utf-8"?>
<!-- Generator: Adobe Illustrator 22.1.0, SVG Export Plug-In . SVG Version: 6.00 Build 0)  -->
<svg version="1.1" id="Capa_1" xmlns="http://www.w3.org/2000/svg" xmlns:xlink="http://www.w3.org/1999/xlink" x="0px" y="0px"
	 viewBox="0 0 100 100" style="enable-background:new 0 0 100 100;" xml:space="preserve">
<style type="text/css">
	.st0{fill:#FFFFFF;}
</style>
<path id="Subtraction_2" class="st0" d="M50,95.7c-6.1,0-12.2-1.2-17.8-3.6c-5.4-2.3-10.4-5.6-14.5-9.8c-4.2-4.2-7.5-9.1-9.8-14.5
	C5.5,62.2,4.3,56.1,4.3,50c0-6.1,1.2-12.2,3.6-17.8c2.3-5.4,5.6-10.4,9.8-14.5c4.2-4.2,9.1-7.5,14.5-9.8C37.8,5.5,43.9,4.3,50,4.3
	c6.1,0,12.2,1.2,17.8,3.6c5.4,2.3,10.4,5.6,14.5,9.8c4.2,4.2,7.5,9.1,9.8,14.5c2.4,5.6,3.6,11.7,3.6,17.8c0,6.1-1.2,12.2-3.6,17.8
	c-2.3,5.4-5.6,10.4-9.8,14.5c-4.2,4.2-9.1,7.5-14.5,9.8C62.2,94.5,56.1,95.7,50,95.7z M57.8,71.4L57.8,71.4l9.9,3.7
	c0.4,0.1,0.7,0.2,1.1,0.2c0.7,0,1.4-0.2,1.9-0.6c0.8-0.7,1.3-1.7,1.3-2.7L71.4,61v-0.3c2.3-3.8,3.5-8.1,3.5-12.5
	c0-3.3-0.6-6.5-1.9-9.5c-1.2-2.9-3-5.5-5.2-7.7c-2.2-2.2-4.8-4-7.7-5.2c-3-1.3-6.2-1.9-9.5-1.9c-3.3,0-6.5,0.6-9.5,1.9
	c-2.9,1.2-5.5,3-7.7,5.2c-2.2,2.2-4,4.8-5.2,7.7c-1.3,3-1.9,6.2-1.9,9.5c0,3.3,0.6,6.5,1.9,9.5c1.2,2.9,3,5.5,5.2,7.7
	c2.2,2.2,4.8,4,7.7,5.2c3,1.3,6.2,1.9,9.5,1.9C53.1,72.6,55.5,72.2,57.8,71.4z M50.6,67.7c-2.6,0-5.2-0.5-7.6-1.5
	c-2.3-1-4.4-2.4-6.2-4.2c-1.8-1.8-3.2-3.9-4.2-6.2c-1-2.4-1.6-5-1.6-7.6c0-2.6,0.5-5.2,1.5-7.6c1-2.3,2.4-4.4,4.2-6.2
	c1.8-1.8,3.9-3.2,6.2-4.2c2.4-1,5-1.6,7.6-1.6c2.6,0,5.2,0.5,7.6,1.5c2.3,1,4.4,2.4,6.2,4.2c1.8,1.8,3.2,3.9,4.2,6.2
	c1,2.4,1.6,5,1.6,7.6c0,2.6-0.5,5.2-1.5,7.6c-1,2.3-2.4,4.4-4.2,6.2c-1.8,1.8-3.9,3.2-6.2,4.2C55.8,67.2,53.2,67.7,50.6,67.7z
	 M50.6,36c-3.2,0-6.3,1.3-8.6,3.6c-2.3,2.3-3.6,5.4-3.6,8.6c0,3.2,1.3,6.3,3.6,8.6c2.3,2.3,5.4,3.6,8.6,3.6c3.2,0,6.3-1.3,8.6-3.6
	c2.3-2.3,3.6-5.4,3.6-8.6c0-3.2-1.3-6.3-3.6-8.6C56.9,37.3,53.8,36,50.6,36z M50.6,57.1c-2.4,0-4.7-0.9-6.4-2.6
	c-1.7-1.7-2.6-4-2.6-6.4c0-2.4,0.9-4.7,2.6-6.4c1.7-1.7,4-2.6,6.4-2.6c2.4,0,4.7,0.9,6.4,2.6c1.7,1.7,2.6,4,2.6,6.4
	c0,2.4-0.9,4.7-2.6,6.4C55.3,56.2,53,57.2,50.6,57.1L50.6,57.1z M50.6,45.1c-1.7,0-3,1.4-3,3s1.4,3,3,3s3-1.4,3-3
	C53.7,46.5,52.3,45.1,50.6,45.1C50.6,45.1,50.6,45.1,50.6,45.1L50.6,45.1z"/>
</svg>
