<?xml version="1.0" encoding="utf-8"?>
<!-- Generator: Adobe Illustrator 23.0.0, SVG Export Plug-In . SVG Version: 6.00 Build 0)  -->
<svg version="1.1" id="Capa_1" xmlns="http://www.w3.org/2000/svg" xmlns:xlink="http://www.w3.org/1999/xlink" x="0px" y="0px"
	 viewBox="0 0 174.9 74.3" style="enable-background:new 0 0 174.9 74.3;" xml:space="preserve">
<style type="text/css">
	.st0{fill:#51DB58;}
</style>
<g>
	<path id="Path_124" class="st0" d="M126.3,28.7c-1.5,0-3.1-0.2-4.5-0.6c-1.3-0.4-2.6-1-3.6-2c-1.1-1-1.8-2.3-2.3-3.6
		c-0.6-1.8-0.9-3.7-0.8-5.6v-3.1c-0.1-1.9,0.2-3.8,0.8-5.6c0.5-1.4,1.3-2.6,2.3-3.6c1-0.9,2.2-1.6,3.6-1.9c1.5-0.4,3-0.6,4.6-0.6
		c1.5,0,3.1,0.2,4.5,0.6c1.3,0.4,2.5,1,3.5,1.9c1,1,1.8,2.2,2.3,3.6c0.6,1.8,0.9,3.7,0.8,5.6v3.1c0,1.9-0.2,3.8-0.8,5.6
		c-0.5,1.4-1.2,2.6-2.3,3.6c-1,0.9-2.2,1.6-3.5,2C129.3,28.5,127.8,28.7,126.3,28.7z M126.3,9.9c-0.8-0.1-1.7,0.2-2.3,0.8
		c-0.5,0.6-0.7,1.5-0.7,2.9V17c0,1.2,0.2,2.2,0.7,2.8c0.5,0.6,1.2,1,2.3,1c0.8,0.1,1.7-0.3,2.2-1c0.5-0.6,0.7-1.6,0.7-2.8v-3.4
		c0-1.3-0.3-2.3-0.8-2.9C127.9,10.2,127.1,9.8,126.3,9.9L126.3,9.9z M127.9,45.9c-0.4,0-0.5-0.2-0.3-0.5l22.8-42
		c0.1-0.2,0.2-0.3,0.4-0.4c0.2-0.1,0.3-0.1,0.5-0.1h9.5c0.4,0,0.5,0.2,0.3,0.5l-22.8,42c-0.1,0.2-0.2,0.3-0.4,0.4
		c-0.2,0.1-0.3,0.1-0.5,0.1L127.9,45.9L127.9,45.9z M162.5,46.8c-1.5,0-3.1-0.2-4.5-0.6c-1.3-0.4-2.5-1.1-3.6-2
		c-1.1-1-1.8-2.3-2.3-3.6c-0.6-1.8-0.9-3.7-0.8-5.6v-3.1c-0.1-1.9,0.2-3.8,0.8-5.6c0.5-1.4,1.3-2.6,2.3-3.6c1-0.9,2.2-1.6,3.6-2
		c1.5-0.4,3-0.6,4.6-0.6c1.5,0,3.1,0.2,4.5,0.6c1.3,0.4,2.5,1,3.5,2c1,1,1.8,2.3,2.3,3.6c0.6,1.8,0.9,3.7,0.8,5.6v3.1
		c0,1.9-0.2,3.8-0.8,5.6c-0.5,1.4-1.2,2.6-2.3,3.6c-1,0.9-2.2,1.6-3.5,2C165.5,46.6,164,46.8,162.5,46.8L162.5,46.8z M162.5,28
		c-1,0-1.8,0.3-2.3,0.8c-0.5,0.6-0.7,1.5-0.7,2.9v3.3c0,1.2,0.2,2.2,0.7,2.8c1.2,1.2,3.1,1.3,4.3,0.1c0,0,0.1-0.1,0.1-0.1
		c0.5-0.6,0.7-1.6,0.7-2.8v-3.3c0-1.4-0.3-2.3-0.8-2.9C164.1,28.3,163.3,28,162.5,28L162.5,28z"/>
	<path id="Path_125" class="st0" d="M119.7,72.6c-0.3,0-0.5,0-0.9,0l-1,0c-0.3,0-0.7,0-1,0c-0.3,0-0.7,0-1-0.1c-0.1,0-0.1,0-0.1-0.1
		c0,0,0-0.1,0-0.1V56.6c0-0.1,0.1-0.2,0.2-0.2c0,0,0,0,0,0c0.3,0,0.6,0,1-0.1c0.3,0,0.7,0,1,0c0.3,0,0.7,0,1,0c0.3,0,0.6,0,0.8,0
		c0.8,0,1.5,0,2.2,0.1c0.6,0.1,1.3,0.2,1.9,0.4c0.6,0.2,1.1,0.5,1.6,0.8c0.5,0.4,0.9,0.8,1.2,1.4c0.4,0.6,0.6,1.3,0.7,2
		c0.2,0.9,0.3,1.9,0.2,2.8v1.2c0,0.9-0.1,1.9-0.2,2.8c-0.1,0.7-0.4,1.4-0.7,2c-0.3,0.5-0.7,1-1.2,1.4c-0.5,0.4-1,0.6-1.6,0.8
		c-0.6,0.2-1.3,0.3-1.9,0.4C121.3,72.6,120.5,72.6,119.7,72.6z M120.1,58.1c-0.2,0-0.3,0-0.6,0c-0.2,0-0.4,0-0.6,0l-0.6,0
		c-0.2,0-0.4,0-0.5,0v12.6c0.2,0,0.4,0,0.6,0.1c0.2,0,0.4,0,0.7,0l0.7,0c0.2,0,0.4,0,0.6,0c0.6,0,1.1,0,1.7-0.1
		c0.5-0.1,0.9-0.2,1.4-0.3c0.4-0.1,0.8-0.4,1.1-0.6c0.3-0.3,0.6-0.7,0.8-1c0.2-0.5,0.4-1,0.5-1.5c0.1-0.7,0.2-1.4,0.2-2.1v-1.3
		c0-0.7,0-1.4-0.2-2.1c-0.1-0.5-0.2-1-0.5-1.5c-0.2-0.4-0.5-0.8-0.8-1c-0.3-0.3-0.7-0.5-1.1-0.6c-0.4-0.2-0.9-0.3-1.4-0.3
		C121.2,58.1,120.6,58.1,120.1,58.1L120.1,58.1z"/>
	<path id="Path_126" class="st0" d="M137,72.7c-1,0-1.9-0.1-2.8-0.4c-0.8-0.2-1.5-0.7-2.1-1.2c-0.6-0.7-1.1-1.4-1.3-2.3
		c-0.3-1.2-0.5-2.4-0.5-3.6v-1.5c0-1.2,0.1-2.4,0.5-3.6c0.2-0.9,0.7-1.7,1.3-2.3c0.6-0.6,1.3-1,2.1-1.2c0.9-0.3,1.9-0.4,2.8-0.4
		c0.7,0,1.3,0,2,0.1c0.5,0.1,1.1,0.2,1.6,0.3c0.1,0,0.2,0.1,0.1,0.2c0,0,0,0,0,0l-0.2,1.4c0,0.1-0.1,0.2-0.2,0.1
		c-0.5-0.1-1.1-0.2-1.6-0.2c-0.6,0-1.1-0.1-1.7-0.1c-0.7,0-1.4,0.1-2,0.3c-0.6,0.2-1.1,0.5-1.5,0.9c-0.4,0.5-0.8,1.1-0.9,1.7
		c-0.2,0.9-0.3,1.8-0.3,2.6v1.7c0,0.9,0.1,1.8,0.3,2.7c0.2,0.6,0.5,1.2,0.9,1.7c0.4,0.4,0.9,0.7,1.5,0.9c0.7,0.2,1.3,0.3,2,0.3
		c0.6,0,1.3,0,1.8-0.1c0.6,0,1.1-0.1,1.6-0.2c0.1,0,0.2,0,0.2,0.1l0.2,1.4c0,0.1,0,0.2-0.1,0.2c-0.6,0.1-1.1,0.2-1.7,0.2
		C138.4,72.7,137.7,72.7,137,72.7z"/>
	<path id="Path_127" class="st0" d="M147.4,72.5c-0.1,0-0.2-0.1-0.2-0.1c0,0,0,0,0,0V58.4h-5c-0.1,0-0.2-0.1-0.2-0.1c0,0,0,0,0,0
		v-1.6c0-0.1,0.1-0.2,0.1-0.2c0,0,0,0,0,0h11.9c0.1,0,0.2,0.1,0.2,0.1c0,0,0,0,0,0v1.6c0,0.1-0.1,0.2-0.1,0.2c0,0,0,0,0,0h-5v13.9
		c0,0.1-0.1,0.2-0.1,0.2c0,0,0,0,0,0L147.4,72.5z"/>
	<path id="Path_128" class="st0" d="M162.5,72.7c-0.9,0-1.8-0.1-2.7-0.4c-0.8-0.2-1.4-0.7-2-1.2c-0.6-0.7-1-1.5-1.2-2.3
		c-0.3-1.2-0.5-2.4-0.4-3.6v-1.5c0-1.2,0.1-2.4,0.4-3.6c0.2-0.9,0.6-1.6,1.2-2.3c0.5-0.6,1.2-1,2-1.2c1.8-0.5,3.6-0.5,5.4,0
		c0.8,0.2,1.4,0.7,2,1.2c0.6,0.7,1,1.5,1.2,2.3c0.3,1.2,0.4,2.4,0.4,3.6v1.5c0,1.2-0.1,2.4-0.4,3.6c-0.2,0.9-0.6,1.6-1.2,2.3
		c-0.5,0.6-1.2,1-2,1.2C164.3,72.6,163.4,72.7,162.5,72.7z M162.5,58.2c-0.6,0-1.3,0.1-1.9,0.2c-0.5,0.2-1,0.5-1.4,0.9
		c-0.4,0.5-0.7,1.1-0.8,1.7c-0.2,0.9-0.3,1.7-0.3,2.6v1.7c0,0.9,0.1,1.8,0.3,2.6c0.1,0.6,0.4,1.2,0.8,1.7c0.4,0.4,0.8,0.7,1.4,0.9
		c0.6,0.2,1.2,0.3,1.9,0.3c0.6,0,1.3-0.1,1.9-0.3c0.5-0.2,1-0.5,1.4-0.9c0.4-0.5,0.7-1.1,0.8-1.7c0.2-0.9,0.3-1.7,0.3-2.6v-1.7
		c0-0.9-0.1-1.8-0.3-2.6c-0.1-0.6-0.4-1.2-0.8-1.7c-0.4-0.4-0.8-0.7-1.4-0.9C163.7,58.2,163.1,58.1,162.5,58.2L162.5,58.2z"/>
	<path id="Path_129" class="st0" d="M4.4,21.1c-0.6,0.2-1-0.1-1-0.7L1.2,7C1.1,6.5,1.4,6,1.9,5.9c0,0,0.1,0,0.1,0l15.2-3.6
		C17.8,2.1,18.4,2,19.1,2h14.8c0.5-0.1,0.9,0.3,1,0.7c0,0.1,0,0.2,0,0.2v68.4c0.1,0.5-0.3,0.9-0.7,1c-0.1,0-0.2,0-0.2,0H19.1
		c-0.5,0.1-0.9-0.3-1-0.7c0-0.1,0-0.2,0-0.2V17.9L4.4,21.1z"/>
	<path id="Path_130" class="st0" d="M73.2,73.8c-2.6,0-5.1-0.1-7.7-0.4c-2.2-0.2-4.4-0.8-6.5-1.6c-1.9-0.8-3.7-1.9-5.2-3.3
		c-1.6-1.6-2.9-3.4-3.8-5.5c-1.1-2.6-1.9-5.3-2.4-8.2c-0.6-3.7-0.9-7.5-0.8-11.3V30.7c0-3.8,0.2-7.6,0.8-11.3
		c0.4-2.8,1.2-5.5,2.3-8.1c0.9-2.1,2.2-3.9,3.8-5.5c1.5-1.4,3.3-2.5,5.2-3.3C61,1.8,63.2,1.2,65.4,1c2.5-0.3,5.1-0.4,7.7-0.4
		c2.6,0,5.2,0.1,7.7,0.4c2.2,0.2,4.4,0.8,6.5,1.6c1.9,0.8,3.7,1.9,5.2,3.3c1.6,1.5,2.9,3.4,3.8,5.5c1.1,2.6,1.9,5.3,2.3,8.1
		c0.6,3.7,0.8,7.5,0.8,11.3v12.8c0,3.8-0.2,7.6-0.8,11.3c-0.4,2.8-1.2,5.5-2.3,8.2c-0.9,2.1-2.2,3.9-3.8,5.5
		c-1.5,1.4-3.2,2.5-5.1,3.3c-2.1,0.8-4.2,1.3-6.5,1.6C78.3,73.6,75.8,73.8,73.2,73.8z M73.1,16.7c-1.5,0-2.9,0.2-4.3,0.6
		c-1.2,0.4-2.2,1.2-3,2.3c-0.9,1.4-1.4,2.9-1.7,4.5c-0.4,2.5-0.6,5-0.5,7.5v11c0,2.5,0.1,5,0.5,7.5c0.2,1.6,0.8,3.2,1.7,4.6
		c0.7,1.1,1.8,1.9,3,2.3c1.4,0.5,2.9,0.7,4.3,0.6c1.4,0,2.9-0.2,4.3-0.6c1.2-0.4,2.2-1.2,3-2.3c0.8-1.1,1.4-2.6,1.7-4.6
		c0.4-2.5,0.6-5,0.5-7.5v-11c0-2.5-0.1-5-0.6-7.5c-0.4-1.9-1-3.5-1.8-4.5c-0.7-1-1.8-1.8-3-2.3C76,16.8,74.5,16.6,73.1,16.7z"/>
</g>
</svg>
