<svg id="Capa_1" data-name="Capa 1" xmlns="http://www.w3.org/2000/svg" viewBox="0 0 843 346"><defs><style>.cls-1{fill:#46ab48;}</style></defs><title>logoMesa de trabajo 1</title><path id="Path_102" data-name="Path 102" class="cls-1" d="M22,334.34c-2.77,0-4.19-1.45-4.19-4.39V294.52a217.81,217.81,0,0,1,3.44-41.65,107.21,107.21,0,0,1,11.07-31.25,113.44,113.44,0,0,1,20-26,324.71,324.71,0,0,1,30.1-25.7l41.57-31.71q11.51-8.76,16.42-16.06a30,30,0,0,0,4.9-17.18q0-13.35-10.56-19.37t-35.2-6c-3.49,0-7.72.08-12.74.2s-10.44.42-16.3.75S58.52,81.38,52.19,82s-12.58,1.49-18.71,2.53c-2.77.45-4.39-.79-4.83-3.73l-9.41-60.1c-.44-3.07.71-4.89,3.36-5.47q11-3.07,22.27-5c7.6-1.32,15-2.32,22.35-3.06s14.32-1.24,21-1.53,12.86-.42,18.55-.42q35.72,0,58.42,7t35.64,19.12A63.25,63.25,0,0,1,218.71,60a124,124,0,0,1,4.91,35.51A136.59,136.59,0,0,1,221,123.15a91,91,0,0,1-8.35,23.63A105.23,105.23,0,0,1,198,167.9a184.25,184.25,0,0,1-21.39,20.32l-29.47,24.25Q132.51,224.28,124,231.72a124.14,124.14,0,0,0-13,12.67,26.85,26.85,0,0,0-5.54,9.19,32.46,32.46,0,0,0-1.15,9H216.53c2.77,0,4.2,1.45,4.2,4.39v63c0,2.94-1.39,4.38-4.2,4.38H22Z"/><path id="Path_103" data-name="Path 103" class="cls-1" d="M379.93,340.78a267.88,267.88,0,0,1-33.74-2,109.74,109.74,0,0,1-28.4-7.32A71.4,71.4,0,0,1,295,316.38a80.19,80.19,0,0,1-16.73-25.14c-4.55-10.3-8-22.71-10.33-37.35a330.15,330.15,0,0,1-3.56-51.9V143.5A326.14,326.14,0,0,1,268,91.73q3.56-21.84,10.25-37.27a77,77,0,0,1,16.61-25,72.72,72.72,0,0,1,22.78-15,110,110,0,0,1,28.32-7.32,265.44,265.44,0,0,1,33.58-1.95,271.69,271.69,0,0,1,33.86,2,108.16,108.16,0,0,1,28.4,7.32,72.54,72.54,0,0,1,22.66,15,77.64,77.64,0,0,1,16.62,25c4.47,10.26,7.83,22.71,10.12,37.26a338.55,338.55,0,0,1,3.44,51.78v58.52A340.15,340.15,0,0,1,491.15,254c-2.29,14.64-5.7,27.08-10.12,37.34a79.51,79.51,0,0,1-16.5,25.15A71.43,71.43,0,0,1,442,331.57a108.87,108.87,0,0,1-28.32,7.32A267.38,267.38,0,0,1,379.93,340.78Zm-.44-261.7a56.33,56.33,0,0,0-19,2.85,25.72,25.72,0,0,0-13,10.38c-3.36,5-5.81,12-7.44,20.89s-2.41,20.3-2.41,34.28v50.46q0,21,2.41,34.4t7.64,21.1A27.21,27.21,0,0,0,360.86,264a54.24,54.24,0,0,0,19,2.94,53.57,53.57,0,0,0,18.7-2.94,27.13,27.13,0,0,0,13-10.58c3.4-5.09,5.93-12.12,7.51-21.1s2.43-20.44,2.42-34.4V147.48c0-14-.84-25.43-2.5-34.28s-4.23-15.86-7.71-20.89a26.86,26.86,0,0,0-13.05-10.38,55.28,55.28,0,0,0-18.75-2.85Z"/><path id="Path_104" data-name="Path 104" class="cls-1" d="M614.78,124a72.13,72.13,0,0,1-20.14-2.65,38.4,38.4,0,0,1-15.83-8.82,41.42,41.42,0,0,1-10.32-16.21c-2.45-6.69-3.72-15-3.72-24.84V57.54q0-14.88,3.64-25a39.77,39.77,0,0,1,10.25-16.1,38.57,38.57,0,0,1,15.82-8.63,75.15,75.15,0,0,1,20.3-2.61,73.37,73.37,0,0,1,20.16,2.61,38.22,38.22,0,0,1,15.71,8.63,40.29,40.29,0,0,1,10.2,16.1c2.41,6.72,3.63,15,3.63,25V71.43c0,9.85-1.22,18.15-3.63,24.84a41.21,41.21,0,0,1-10.13,16.21A37.41,37.41,0,0,1,635,121.3,72.51,72.51,0,0,1,614.78,124Zm0-83.45c-4.51,0-7.84,1.26-10,3.75S601.53,51,601.53,57V71.9c0,5.46,1.06,9.61,3.24,12.46s5.5,4.27,10,4.27c4.31,0,7.59-1.42,9.8-4.27s3.33-7,3.33-12.46V57c0-6-1.15-10.2-3.44-12.74A12.55,12.55,0,0,0,614.78,40.5Zm7.11,160c-1.81,0-2.25-.79-1.3-2.33L721.92,11.46a4.65,4.65,0,0,1,1.63-1.89,4.48,4.48,0,0,1,2.25-.44h42.05c1.74,0,2.17.79,1.3,2.33L667.93,198.2a4.73,4.73,0,0,1-1.62,1.9,4.6,4.6,0,0,1-2.25.43Zm153.67,4a71.07,71.07,0,0,1-20.14-2.73,38.92,38.92,0,0,1-15.82-8.9,41.37,41.37,0,0,1-10.33-16.22c-2.45-6.68-3.71-15-3.71-24.84V138.11q0-14.88,3.64-25A39.85,39.85,0,0,1,739.44,97a38.36,38.36,0,0,1,15.82-8.7,74.06,74.06,0,0,1,20.25-2.61,72.75,72.75,0,0,1,20.18,2.61,37.74,37.74,0,0,1,15.7,8.7,41,41,0,0,1,10.2,16.14c2.42,6.72,3.64,15,3.64,25v13.77c0,9.85-1.22,18.16-3.64,24.84a41.18,41.18,0,0,1-10.12,16.22,38.19,38.19,0,0,1-15.7,8.9,71.2,71.2,0,0,1-20.21,2.69Zm0-83.42c-4.51,0-7.83,1.22-10,3.71s-3.24,6.73-3.24,12.78v14.79c0,5.46,1.07,9.61,3.24,12.46s5.51,4.27,10,4.27c4.31,0,7.6-1.42,9.81-4.27s3.33-7,3.33-12.46V137.6c0-6-1.15-10.32-3.44-12.78a12.59,12.59,0,0,0-9.7-3.71Z"/><path id="Path_105" data-name="Path 105" class="cls-1" d="M586,333.94c-1.16,0-2.46,0-3.84,0l-4.31-.12c-1.47,0-3-.12-4.48-.2s-3-.19-4.35-.31a1.34,1.34,0,0,1-.59-.28.83.83,0,0,1-.16-.59V262.82a.76.76,0,0,1,.68-.82H569c1.35-.08,2.81-.16,4.35-.23s3.13-.12,4.67-.16,3-.08,4.39-.08,2.57,0,3.52,0a96.53,96.53,0,0,1,9.77.47,39.94,39.94,0,0,1,8.51,1.74,25.16,25.16,0,0,1,7,3.6,20,20,0,0,1,5.22,6,31.2,31.2,0,0,1,3.28,9,60.66,60.66,0,0,1,1.15,12.54v5.46a61.11,61.11,0,0,1-1.15,12.58,31.09,31.09,0,0,1-3.28,9,20.23,20.23,0,0,1-5.22,6.09,25.13,25.13,0,0,1-7,3.68,38.09,38.09,0,0,1-8.51,1.82C592.64,333.78,589.4,333.94,586,333.94Zm1.42-64.63c-.71,0-1.54,0-2.45,0s-1.9,0-2.89.08l-2.85.12c-.91,0-1.7.12-2.37.16V325.6c.79.08,1.62.16,2.61.2s1.94.08,2.93.16,2,.08,2.93.08,1.82,0,2.57,0a62.31,62.31,0,0,0,7.35-.4,25.28,25.28,0,0,0,6.06-1.46,14.81,14.81,0,0,0,4.7-2.89,14.15,14.15,0,0,0,3.36-4.67,25.25,25.25,0,0,0,2-6.8,58.37,58.37,0,0,0,.67-9.34v-5.78a52.13,52.13,0,0,0-.71-9.25,25.49,25.49,0,0,0-2.06-6.77,14.38,14.38,0,0,0-3.44-4.66,15.79,15.79,0,0,0-4.78-2.89,27.51,27.51,0,0,0-6.13-1.46,70,70,0,0,0-7.52-.4Z"/><path id="Path_106" data-name="Path 106" class="cls-1" d="M662.58,334.34A45.1,45.1,0,0,1,650,332.72a21.16,21.16,0,0,1-9.29-5.54,25.11,25.11,0,0,1-5.81-10.29,53.63,53.63,0,0,1-2-15.94v-6.76a53.41,53.41,0,0,1,2-15.9A25.3,25.3,0,0,1,640.74,268a21.69,21.69,0,0,1,9.3-5.54,43.15,43.15,0,0,1,12.54-1.62,81,81,0,0,1,8.94.47,45.49,45.49,0,0,1,7.23,1.31.78.78,0,0,1,.61.91v0l-1.07,6.24a.69.69,0,0,1-.72.67.58.58,0,0,1-.19,0,55.69,55.69,0,0,0-7.16-.95c-2.53-.2-5-.28-7.36-.28a31.36,31.36,0,0,0-9,1.19,15.47,15.47,0,0,0-6.64,4,18.19,18.19,0,0,0-4.11,7.52,41.2,41.2,0,0,0-1.39,11.75v7.71a43.61,43.61,0,0,0,1.39,11.82,18.62,18.62,0,0,0,4.07,7.56,14.67,14.67,0,0,0,6.65,4,31.18,31.18,0,0,0,9,1.15c2.89,0,5.58-.08,8.07-.27s4.83-.48,7-.83c.55-.08.83.11.87.63l1,6.37a.8.8,0,0,1-.6.94h0a56.67,56.67,0,0,1-7.44,1.15C668.82,334.18,665.78,334.34,662.58,334.34Z"/><path id="Path_107" data-name="Path 107" class="cls-1" d="M708.67,333.15a.71.71,0,0,1-.79-.62v-62H685.81a.71.71,0,0,1-.79-.62.48.48,0,0,1,0-.17v-7a.71.71,0,0,1,.62-.79h53.05a.7.7,0,0,1,.79.62.48.48,0,0,1,0,.17v7a.71.71,0,0,1-.61.79H716.58V332.4a.7.7,0,0,1-.62.79h-7.29Z"/><path id="Path_108" data-name="Path 108" class="cls-1" d="M775.56,334.34a41.2,41.2,0,0,1-12-1.62,19.89,19.89,0,0,1-8.82-5.54,24.69,24.69,0,0,1-5.45-10.29A56.36,56.36,0,0,1,747.4,301v-6.76a56.58,56.58,0,0,1,1.9-15.86A25.66,25.66,0,0,1,754.75,268a20.43,20.43,0,0,1,8.82-5.53,39.57,39.57,0,0,1,12-1.67,40.81,40.81,0,0,1,12,1.63,19.54,19.54,0,0,1,8.78,5.53,25.11,25.11,0,0,1,5.42,10.29,58.39,58.39,0,0,1,1.86,15.9V301a58.39,58.39,0,0,1-1.86,15.9,25.11,25.11,0,0,1-5.42,10.29,19.91,19.91,0,0,1-8.78,5.5A38.29,38.29,0,0,1,775.56,334.34Zm0-64.71a27.85,27.85,0,0,0-8.31,1.15,13.36,13.36,0,0,0-6.09,3.91,17.92,17.92,0,0,0-3.76,7.44,43.77,43.77,0,0,0-1.26,11.63v7.71a46.15,46.15,0,0,0,1.26,11.71,19.19,19.19,0,0,0,3.72,7.44,13,13,0,0,0,6.09,3.91,26.84,26.84,0,0,0,8.35,1.16,27.28,27.28,0,0,0,8.27-1.16,13.6,13.6,0,0,0,6-3.91,18.32,18.32,0,0,0,3.71-7.44,44.42,44.42,0,0,0,1.27-11.71v-7.64a45,45,0,0,0-1.27-11.62,18.9,18.9,0,0,0-3.71-7.44,13.05,13.05,0,0,0-6-3.92A24.23,24.23,0,0,0,775.56,269.63Z"/><path id="Path_109" data-name="Path 109" class="cls-1" d="M817.41,333.15a.72.72,0,0,1-.8-.62V321.36a.78.78,0,0,1,.66-.87h.14l7.08-1.15a.81.81,0,0,1,.59.08c.12.07.16.27.16.59v12.35a.7.7,0,0,1-.62.79.48.48,0,0,1-.17,0Z"/></svg>