<svg id="Capa_1" data-name="Capa 1" xmlns="http://www.w3.org/2000/svg" viewBox="0 0 410 133"><defs><style>.cls-1{fill:#fff;}.cls-2,.cls-3{fill:#46ab48;}.cls-2{fill-rule:evenodd;}</style></defs><title>logoMesa de trabajo 1</title><path id="Path_71" data-name="Path 71" class="cls-1" d="M164,31.48v3.94H151.28V17.65h12.53v3.94h-8.18v3.13h7.27v3.64h-7.27v3.13Z"/><path id="Path_72" data-name="Path 72" class="cls-1" d="M185.74,35.42h-4V27.07l-4.14,8.35h-2.82l-4-8.15v8.15h-4V17.65h3.63l6.08,12.07L182,17.65h3.73Z"/><path id="Path_73" data-name="Path 73" class="cls-1" d="M199.39,30a1.85,1.85,0,0,0-1.92-1.72h-4.15v3.44h4.15a1.74,1.74,0,0,0,1.91-1.57C199.38,30.07,199.39,30,199.39,30Zm-6-8.58v3.44H197a1.67,1.67,0,0,0,1.81-1.52,1.34,1.34,0,0,0,0-.2,1.73,1.73,0,0,0-1.74-1.71h-3.71Zm10.6,8.47c0,3.48-2.6,5.56-6.26,5.56H189V17.65h8.58c2.83,0,5.56,1.77,5.56,5a3.78,3.78,0,0,1-1.77,3.1A4.69,4.69,0,0,1,203.94,29.86Z"/><path id="Path_74" data-name="Path 74" class="cls-1" d="M216.17,29.26l-2.42-5.73-2.42,5.73Zm1.52,3.53h-7.87l-1.11,2.63h-4.45l7.88-17.77h3.53l7.77,17.77H218.8Z"/><path id="Path_75" data-name="Path 75" class="cls-1" d="M224.2,30h4.16a2,2,0,0,0,2.28,1.92,1.94,1.94,0,0,0,2.22-2.12V17.65h4.34v12c0,3.93-2.83,6-6.46,6C226.9,35.72,224.5,33.8,224.2,30Z"/><path id="Path_76" data-name="Path 76" class="cls-1" d="M249.69,29.26l-2.42-5.73-2.42,5.73Zm1.51,3.53h-7.87l-1.11,2.63h-4.44l7.87-17.77h3.53L257,35.42h-4.65Z"/><path id="Path_77" data-name="Path 77" class="cls-1" d="M270.41,26.54a4.83,4.83,0,0,0-5.15-4.94h-2.32v9.89h2.32A4.85,4.85,0,0,0,270.41,26.54Zm4.54,0c0,5-4.29,8.88-9.49,8.88h-6.87V17.65h6.87c5.2,0,9.49,3.94,9.49,8.89Z"/><path id="Path_78" data-name="Path 78" class="cls-1" d="M286.59,29.26l-2.42-5.73-2.42,5.73Zm1.51,3.53h-7.87l-1.11,2.63h-4.45l7.87-17.77h3.54l7.77,17.77h-4.64Z"/><path id="Path_79" data-name="Path 79" class="cls-1" d="M205.14,107.3c2.87,0,3.62-1.06,3.62-3.48s-.75-3.49-3.62-3.49H204v7h1.13Zm-2.38-8.11h2.56c3.41,0,4.73,1.63,4.73,4.62s-1.32,4.61-4.73,4.61h-2.56Z"/><path id="Path_80" data-name="Path 80" class="cls-1" d="M214.63,105.47c-1.55,0-2,.4-2,1.06s.41,1,1.13,1a3.12,3.12,0,0,0,1.77-.56v-1.53Zm1.06,2.38a3.41,3.41,0,0,1-2.21.78,2,2,0,0,1-2.13-1.77,2.18,2.18,0,0,1,0-.25c0-1.6,1.3-2.1,3.1-2.1h1.05v-.33c0-.94-.43-1.43-1.47-1.43a3.83,3.83,0,0,0-1.88.57l-.46-.92a4.07,4.07,0,0,1,2.36-.73,2.35,2.35,0,0,1,2.66,2.53v3c0,.23,0,.35.38.35h.37v1a2.94,2.94,0,0,1-.66.11,1,1,0,0,1-1.08-.75Z"/><path id="Path_81" data-name="Path 81" class="cls-1" d="M219.76,101.89l.14.59h0a4.37,4.37,0,0,1,2.31-.8,2.23,2.23,0,0,1,2.39,2.5v4.25h-1.22v-4c0-1.13-.48-1.67-1.47-1.67a3.57,3.57,0,0,0-1.83.64v5h-1.22v-6.55Z"/><path id="Path_82" data-name="Path 82" class="cls-1" d="M226.64,108.43v-6.54h1.22v6.54Zm.61-9.38a.71.71,0,0,1,.78.63.57.57,0,0,1,0,.13.8.8,0,0,1-.81.76.78.78,0,0,1-.75-.76.71.71,0,0,1,.65-.76Z"/><path id="Path_83" data-name="Path 83" class="cls-1" d="M234.37,104.57a1.31,1.31,0,0,0,0-.28,1.54,1.54,0,0,0-1.74-1.56,1.81,1.81,0,0,0-1.85,1.75v.1h3.58Zm-3.58,1a2,2,0,0,0,1.87,2h.21a3.32,3.32,0,0,0,1.95-.59l.48.92a4.52,4.52,0,0,1-2.55.71c-2.24,0-3.2-1.62-3.2-3.5s1-3.46,3.08-3.46a2.67,2.67,0,0,1,2.92,2.83,7.28,7.28,0,0,1-.08,1h-4.68Z"/><path id="Path_84" data-name="Path 84" class="cls-1" d="M239.42,108.48a3.6,3.6,0,0,1-.8.12c-1,0-1.39-.57-1.39-1.51V98.92h1.23v8.25c0,.23,0,.35.38.35h.58v1Z"/><path id="Path_85" data-name="Path 85" class="cls-1" d="M247.09,100.66l-1.56,4.4h3.15l-1.56-4.4Zm4.14,7.77h-1.3l-.83-2.31h-4l-.84,2.31H243l3.49-9.24h1.26Z"/><path id="Path_86" data-name="Path 86" class="cls-1" d="M255.22,101.68a5.38,5.38,0,0,1,2,.47l-.31.95a4.84,4.84,0,0,0-1.72-.35c-1.37,0-2,1.19-2,2.4s.61,2.4,2,2.4a4.84,4.84,0,0,0,1.72-.35l.31,1a5.38,5.38,0,0,1-2,.47c-2.05,0-3.22-1.43-3.22-3.48S253.16,101.68,255.22,101.68Z"/><path id="Path_87" data-name="Path 87" class="cls-1" d="M263.43,108.43v-4c0-1.13-.48-1.67-1.47-1.67a3.62,3.62,0,0,0-1.83.63v5H258.9V98.92h1.23v3.42h0a4.06,4.06,0,0,1,2.1-.66,2.23,2.23,0,0,1,2.4,2.49v4.26Z"/><path id="Path_88" data-name="Path 88" class="cls-1" d="M269.48,107.56c1.46,0,2-1,2-2.4s-.55-2.4-2-2.4-2,1-2,2.4S268,107.56,269.48,107.56Zm0,1.08c-2.3,0-3.2-1.58-3.2-3.48s.91-3.48,3.2-3.48,3.26,1.57,3.26,3.48S271.81,108.64,269.48,108.64Z"/><path id="Path_89" data-name="Path 89" class="cls-1" d="M275.31,101.89l.15.59h0a4.37,4.37,0,0,1,2.31-.8,2.23,2.23,0,0,1,2.4,2.5v4.25H279v-4c0-1.13-.47-1.67-1.46-1.67a3.58,3.58,0,0,0-1.84.64v5h-1.22v-6.55Z"/><path id="Path_90" data-name="Path 90" class="cls-1" d="M286.69,103.39a2.78,2.78,0,0,0-1.77-.63c-1.38,0-1.83,1.08-1.83,2.4s.45,2.4,1.83,2.4a2.73,2.73,0,0,0,1.77-.64Zm1.22-4.47v9.51H287l-.14-.59h0a3.94,3.94,0,0,1-2.28.8c-1.93,0-2.76-1.57-2.76-3.48s.83-3.48,2.76-3.48a3.31,3.31,0,0,1,2.06.66h0V98.92Z"/><path id="Path_91" data-name="Path 91" class="cls-1" d="M292.81,107.56c1.47,0,2-1,2-2.4s-.55-2.4-2-2.4-1.95,1-1.95,2.4S291.37,107.56,292.81,107.56Zm0,1.08c-2.3,0-3.2-1.58-3.2-3.48s.91-3.48,3.2-3.48,3.27,1.57,3.27,3.48S295.14,108.64,292.81,108.64Z"/><path id="Path_92" data-name="Path 92" class="cls-2" d="M149.69,57.82v0c-2.41,0-4.83-.13-7.24,0-4.58.3-6.13,1.64-6.41,6.15a95,95,0,0,0,.09,12c.2,3.07,1.93,5.15,5.25,5.2q8.43.12,16.88,0a5,5,0,0,0,5.34-5.1,115.24,115.24,0,0,0,0-13c-.19-3.36-2.27-5.22-5.72-5.28C155.16,57.79,152.43,57.82,149.69,57.82Zm.15,33.35c-5.63-.41-11.27-.54-16.81-1.32-6.06-.86-9.13-3.79-9.54-9.74a148.1,148.1,0,0,1,0-21.17c.44-6,3.56-9.33,9.59-9.62,11.19-.52,22.45-.53,33.64,0,6.11.31,9.2,3.93,9.58,10.17a158.32,158.32,0,0,1,0,20.2c-.41,6.21-3.41,9.28-9.66,10.17-5.55.78-11.19.89-16.81,1.3Z"/><path id="Path_93" data-name="Path 93" class="cls-2" d="M197.3,80.35c7.19,0,13.77.09,20.34,0,3.25-.07,5-2.14,5.18-5.28A52.47,52.47,0,0,0,222.67,64c-.31-1.82-2.36-4.66-3.77-4.76-7.13-.49-14.3-.22-21.59-.22C197.3,66.12,197.3,73.14,197.3,80.35Zm-12.1,9.59V49.54a35.57,35.57,0,0,1,3.71-.37q14,0,28.05,0c1,0,1.93,0,2.89.08,12.17.56,15.37,3.67,15.81,15.77a111.09,111.09,0,0,1-.31,13.53c-.54,6.29-3.24,9.49-9.52,10.31a170.31,170.31,0,0,1-18.78,1C199.87,90.06,192.66,89.94,185.2,89.94Z"/><path id="Path_94" data-name="Path 94" class="cls-2" d="M12.6,90.47V81.26H49.88c3.82.37,3.91-6.15.31-6.45-3-.37-5.2-.19-7.7-.34-7.23-.41-14.5-.5-21.71-1.11-6.56-.56-8.61-3.08-8.83-9.72C11.53,52,13.32,49.49,25,48.9s23.72-.13,35.82-.13v8.79H24.43C21.37,58,20.77,64,24,64.5a48.75,48.75,0,0,0,6.21.23c7.41.38,14.82.55,22.22.94,7.7.42,9.83,2.76,10,10.55.23,11.26-1.53,13.69-12.63,14.14C37.56,90.85,25.32,90.47,12.6,90.47Z"/><path id="Path_95" data-name="Path 95" class="cls-2" d="M276.34,75l-8.53-16.74-1.38.08L258.11,75ZM284,89.69l-3.45-5.86h-26.8c-1.08,1.87-2.19,3.79-3.38,5.89H237.55L257.7,49.33h18.91c6.62,13.26,13.26,26.56,20.14,40.36Z"/><path id="Path_96" data-name="Path 96" class="cls-2" d="M70,49.34H81.43V65.63l1,.72,21.37-17h14.34c.19.24.39.49.6.73L98.27,66.32l22.59,23.23H103L88.81,73.83l-7.13,5.52V89.64H70C70,76.31,70,63.07,70,49.34Z"/><path id="Path_97" data-name="Path 97" class="cls-2" d="M32.07,45.62l-5.86-6.73h8.84l3.19,3.56,3.46-3.74h8.55l-5.64,6.9Z"/><path id="Path_98" data-name="Path 98" class="cls-3" d="M350.91,22.19A46.15,46.15,0,1,0,383.78,36l-.38-.38A45.65,45.65,0,0,0,350.91,22.19Zm0,93.16a47.21,47.21,0,1,1,33.37-13.83A47.2,47.2,0,0,1,350.91,115.35Z"/><path id="Path_99" data-name="Path 99" class="cls-2" d="M350.87,106.39a38.23,38.23,0,1,0-.17,0Zm.07,3.81A42.15,42.15,0,1,1,393.06,68a42.21,42.21,0,0,1-42.12,42.18Z"/><path id="Path_100" data-name="Path 100" class="cls-2" d="M356,82.83a6.38,6.38,0,1,0-6.34-6.41v0A6.4,6.4,0,0,0,356,82.83Zm-18.29-27.3c-2.35-1.78-4.66-3.62-7.07-5.32-1.59-1.13-3.31-2.08-5-3.09-1-.61-1-.84-.28-1.73a33.31,33.31,0,0,1,7.77-6.58,2.52,2.52,0,0,1,2.94,0,64.84,64.84,0,0,1,10.7,7.88A16.36,16.36,0,0,0,350,48.62a2.85,2.85,0,0,0,1,.12l.24-.28c-1.53-2-3-4-4.62-5.88s-3.59-3.51-5.37-5.28a2,2,0,0,1-.7-1.33c0-.31.71-.68,1.17-.8a32.52,32.52,0,0,1,11.52-1.24,4,4,0,0,1,2.13.86,36.93,36.93,0,0,1,13,23.13A49.32,49.32,0,0,1,367,78c-.34,1.34-.7,2.66-1,4a4.57,4.57,0,0,0-.14,1.42c.07,1.09.85,1.15,1.71,1.14s1-.52,1-1.22c0-.28,0-.55,0-.83,0-.87.42-1.27,1.3-1.13a19.31,19.31,0,0,1,10.12,5,1.06,1.06,0,0,1,.28,1.48,1,1,0,0,1-.22.23,19.4,19.4,0,0,1-10.29,5.09c-.83.13-1.22-.37-1.19-1.17.11-2.24-.13-2-2.07-2-9.88,0-19.75,0-29.63,0a4.14,4.14,0,0,0-2.62.72c-.14.1-.31.15-.44.26-2.11,1.79-4.63,1.92-7.2,1.69a1.83,1.83,0,0,1-1.16-.66c-2-2.72-4-5.47-6-8.25a2.16,2.16,0,0,1-.35-1.67,1.8,1.8,0,0,1,1.41-.76c3.09-.07,6.19,0,9.29,0a3.89,3.89,0,0,1,1.38.38c1.78.81,3.55,1.65,5.32,2.49a2,2,0,0,0,2.23,0c.75-.58.58-1.42.44-2.19C337.74,74.1,333,69,325.59,66.3a67.05,67.05,0,0,0-6.84-1.86c-1.41-.34-1.78-.82-1.52-2.25a33,33,0,0,1,3.39-10c.65-1.2,1-1.35,2.34-1a50.23,50.23,0,0,1,10.28,3.89,13.92,13.92,0,0,0,2.79,1,4.39,4.39,0,0,0,1.53-.21A2.29,2.29,0,0,0,337.68,55.53Z"/></svg>