<?xml version="1.0" encoding="utf-8"?>
<!-- Generator: Adobe Illustrator 23.0.0, SVG Export Plug-In . SVG Version: 6.00 Build 0)  -->
<svg version="1.1" id="Capa_1" xmlns="http://www.w3.org/2000/svg" xmlns:xlink="http://www.w3.org/1999/xlink" x="0px" y="0px"
	 viewBox="0 0 149.1 31.4" style="enable-background:new 0 0 149.1 31.4;" xml:space="preserve">
<style type="text/css">
	.st0{fill:#51DB58;}
	.st1{fill-rule:evenodd;clip-rule:evenodd;fill:#51DB58;}
</style>
<g>
	<path id="Path_124" class="st0" d="M126.3-59.3c-1.5,0-3.1-0.2-4.5-0.6c-1.3-0.4-2.6-1-3.6-2c-1.1-1-1.8-2.3-2.3-3.6
		c-0.6-1.8-0.9-3.7-0.8-5.6v-3.1c-0.1-1.9,0.2-3.8,0.8-5.6c0.5-1.4,1.3-2.6,2.3-3.6c1-0.9,2.2-1.6,3.6-1.9c1.5-0.4,3-0.6,4.6-0.6
		c1.5,0,3.1,0.2,4.5,0.6c1.3,0.4,2.5,1,3.5,1.9c1,1,1.8,2.2,2.3,3.6c0.6,1.8,0.9,3.7,0.8,5.6v3.1c0,1.9-0.2,3.8-0.8,5.6
		c-0.5,1.4-1.2,2.6-2.3,3.6c-1,0.9-2.2,1.6-3.5,2C129.3-59.5,127.8-59.3,126.3-59.3z M126.3-78.1c-0.8-0.1-1.7,0.2-2.3,0.8
		c-0.5,0.6-0.7,1.5-0.7,2.9v3.4c0,1.2,0.2,2.2,0.7,2.8s1.2,1,2.3,1c0.8,0.1,1.7-0.3,2.2-1c0.5-0.6,0.7-1.6,0.7-2.8v-3.4
		c0-1.3-0.3-2.3-0.8-2.9C127.9-77.8,127.1-78.2,126.3-78.1L126.3-78.1z M127.9-42.1c-0.4,0-0.5-0.2-0.3-0.5l22.8-42
		c0.1-0.2,0.2-0.3,0.4-0.4c0.2-0.1,0.3-0.1,0.5-0.1h9.5c0.4,0,0.5,0.2,0.3,0.5l-22.8,42c-0.1,0.2-0.2,0.3-0.4,0.4
		c-0.2,0.1-0.3,0.1-0.5,0.1L127.9-42.1L127.9-42.1z M162.5-41.2c-1.5,0-3.1-0.2-4.5-0.6c-1.3-0.4-2.5-1.1-3.6-2
		c-1.1-1-1.8-2.3-2.3-3.6c-0.6-1.8-0.9-3.7-0.8-5.6v-3.1c-0.1-1.9,0.2-3.8,0.8-5.6c0.5-1.4,1.3-2.6,2.3-3.6c1-0.9,2.2-1.6,3.6-2
		c1.5-0.4,3-0.6,4.6-0.6c1.5,0,3.1,0.2,4.5,0.6c1.3,0.4,2.5,1,3.5,2c1,1,1.8,2.3,2.3,3.6c0.6,1.8,0.9,3.7,0.8,5.6v3.1
		c0,1.9-0.2,3.8-0.8,5.6c-0.5,1.4-1.2,2.6-2.3,3.6c-1,0.9-2.2,1.6-3.5,2C165.5-41.4,164-41.2,162.5-41.2L162.5-41.2z M162.5-60
		c-1,0-1.8,0.3-2.3,0.8s-0.7,1.5-0.7,2.9v3.3c0,1.2,0.2,2.2,0.7,2.8c1.2,1.2,3.1,1.3,4.3,0.1c0,0,0.1-0.1,0.1-0.1
		c0.5-0.6,0.7-1.6,0.7-2.8v-3.3c0-1.4-0.3-2.3-0.8-2.9C164.1-59.7,163.3-60,162.5-60L162.5-60z"/>
	<path id="Path_125" class="st0" d="M119.7-15.4c-0.3,0-0.5,0-0.9,0l-1,0c-0.3,0-0.7,0-1,0c-0.3,0-0.7,0-1-0.1c-0.1,0-0.1,0-0.1-0.1
		c0,0,0-0.1,0-0.1v-15.7c0-0.1,0.1-0.2,0.2-0.2c0,0,0,0,0,0c0.3,0,0.6,0,1-0.1c0.3,0,0.7,0,1,0c0.3,0,0.7,0,1,0c0.3,0,0.6,0,0.8,0
		c0.8,0,1.5,0,2.2,0.1c0.6,0.1,1.3,0.2,1.9,0.4c0.6,0.2,1.1,0.5,1.6,0.8c0.5,0.4,0.9,0.8,1.2,1.4c0.4,0.6,0.6,1.3,0.7,2
		c0.2,0.9,0.3,1.9,0.2,2.8v1.2c0,0.9-0.1,1.9-0.2,2.8c-0.1,0.7-0.4,1.4-0.7,2c-0.3,0.5-0.7,1-1.2,1.4c-0.5,0.4-1,0.6-1.6,0.8
		c-0.6,0.2-1.3,0.3-1.9,0.4C121.3-15.4,120.5-15.4,119.7-15.4z M120.1-29.9c-0.2,0-0.3,0-0.6,0c-0.2,0-0.4,0-0.6,0l-0.6,0
		c-0.2,0-0.4,0-0.5,0v12.6c0.2,0,0.4,0,0.6,0.1c0.2,0,0.4,0,0.7,0l0.7,0c0.2,0,0.4,0,0.6,0c0.6,0,1.1,0,1.7-0.1
		c0.5-0.1,0.9-0.2,1.4-0.3c0.4-0.1,0.8-0.4,1.1-0.6c0.3-0.3,0.6-0.7,0.8-1c0.2-0.5,0.4-1,0.5-1.5c0.1-0.7,0.2-1.4,0.2-2.1v-1.3
		c0-0.7,0-1.4-0.2-2.1c-0.1-0.5-0.2-1-0.5-1.5c-0.2-0.4-0.5-0.8-0.8-1c-0.3-0.3-0.7-0.5-1.1-0.6c-0.4-0.2-0.9-0.3-1.4-0.3
		C121.2-29.9,120.6-29.9,120.1-29.9L120.1-29.9z"/>
	<path id="Path_126" class="st0" d="M137-15.3c-1,0-1.9-0.1-2.8-0.4c-0.8-0.2-1.5-0.7-2.1-1.2c-0.6-0.7-1.1-1.4-1.3-2.3
		c-0.3-1.2-0.5-2.4-0.5-3.6v-1.5c0-1.2,0.1-2.4,0.5-3.6c0.2-0.9,0.7-1.7,1.3-2.3c0.6-0.6,1.3-1,2.1-1.2c0.9-0.3,1.9-0.4,2.8-0.4
		c0.7,0,1.3,0,2,0.1c0.5,0.1,1.1,0.2,1.6,0.3c0.1,0,0.2,0.1,0.1,0.2c0,0,0,0,0,0l-0.2,1.4c0,0.1-0.1,0.2-0.2,0.1
		c-0.5-0.1-1.1-0.2-1.6-0.2c-0.6,0-1.1-0.1-1.7-0.1c-0.7,0-1.4,0.1-2,0.3c-0.6,0.2-1.1,0.5-1.5,0.9c-0.4,0.5-0.8,1.1-0.9,1.7
		c-0.2,0.9-0.3,1.8-0.3,2.6v1.7c0,0.9,0.1,1.8,0.3,2.7c0.2,0.6,0.5,1.2,0.9,1.7c0.4,0.4,0.9,0.7,1.5,0.9c0.7,0.2,1.3,0.3,2,0.3
		c0.6,0,1.3,0,1.8-0.1c0.6,0,1.1-0.1,1.6-0.2c0.1,0,0.2,0,0.2,0.1l0.2,1.4c0,0.1,0,0.2-0.1,0.2c-0.6,0.1-1.1,0.2-1.7,0.2
		C138.4-15.3,137.7-15.3,137-15.3z"/>
	<path id="Path_127" class="st0" d="M147.4-15.5c-0.1,0-0.2-0.1-0.2-0.1c0,0,0,0,0,0v-13.9h-5c-0.1,0-0.2-0.1-0.2-0.1c0,0,0,0,0,0
		v-1.6c0-0.1,0.1-0.2,0.1-0.2c0,0,0,0,0,0h11.9c0.1,0,0.2,0.1,0.2,0.1c0,0,0,0,0,0v1.6c0,0.1-0.1,0.2-0.1,0.2c0,0,0,0,0,0h-5v13.9
		c0,0.1-0.1,0.2-0.1,0.2c0,0,0,0,0,0L147.4-15.5z"/>
	<path id="Path_128" class="st0" d="M162.5-15.3c-0.9,0-1.8-0.1-2.7-0.4c-0.8-0.2-1.4-0.7-2-1.2c-0.6-0.7-1-1.5-1.2-2.3
		c-0.3-1.2-0.5-2.4-0.4-3.6v-1.5c0-1.2,0.1-2.4,0.4-3.6c0.2-0.9,0.6-1.6,1.2-2.3c0.5-0.6,1.2-1,2-1.2c1.8-0.5,3.6-0.5,5.4,0
		c0.8,0.2,1.4,0.7,2,1.2c0.6,0.7,1,1.5,1.2,2.3c0.3,1.2,0.4,2.4,0.4,3.6v1.5c0,1.2-0.1,2.4-0.4,3.6c-0.2,0.9-0.6,1.6-1.2,2.3
		c-0.5,0.6-1.2,1-2,1.2C164.3-15.4,163.4-15.3,162.5-15.3z M162.5-29.8c-0.6,0-1.3,0.1-1.9,0.2c-0.5,0.2-1,0.5-1.4,0.9
		c-0.4,0.5-0.7,1.1-0.8,1.7c-0.2,0.9-0.3,1.7-0.3,2.6v1.7c0,0.9,0.1,1.8,0.3,2.6c0.1,0.6,0.4,1.2,0.8,1.7c0.4,0.4,0.8,0.7,1.4,0.9
		c0.6,0.2,1.2,0.3,1.9,0.3c0.6,0,1.3-0.1,1.9-0.3c0.5-0.2,1-0.5,1.4-0.9c0.4-0.5,0.7-1.1,0.8-1.7c0.2-0.9,0.3-1.7,0.3-2.6v-1.7
		c0-0.9-0.1-1.8-0.3-2.6c-0.1-0.6-0.4-1.2-0.8-1.7c-0.4-0.4-0.8-0.7-1.4-0.9C163.7-29.8,163.1-29.9,162.5-29.8L162.5-29.8z"/>
	<path id="Path_129" class="st0" d="M4.4-66.9c-0.6,0.2-1-0.1-1-0.7L1.2-81c-0.1-0.5,0.2-1,0.7-1.2c0,0,0.1,0,0.1,0l15.2-3.6
		c0.6-0.2,1.2-0.2,1.9-0.2h14.8c0.5-0.1,0.9,0.3,1,0.7c0,0.1,0,0.2,0,0.2v68.4c0.1,0.5-0.3,0.9-0.7,1c-0.1,0-0.2,0-0.2,0H19.1
		c-0.5,0.1-0.9-0.3-1-0.7c0-0.1,0-0.2,0-0.2v-53.5L4.4-66.9z"/>
	<path id="Path_130" class="st0" d="M73.2-14.2c-2.6,0-5.1-0.1-7.7-0.4c-2.2-0.2-4.4-0.8-6.5-1.6c-1.9-0.8-3.7-1.9-5.2-3.3
		c-1.6-1.6-2.9-3.4-3.8-5.5c-1.1-2.6-1.9-5.3-2.4-8.2c-0.6-3.7-0.9-7.5-0.8-11.3v-12.7c0-3.8,0.2-7.6,0.8-11.3
		c0.4-2.8,1.2-5.5,2.3-8.1c0.9-2.1,2.2-3.9,3.8-5.5c1.5-1.4,3.3-2.5,5.2-3.3c2.1-0.8,4.2-1.3,6.5-1.6c2.5-0.3,5.1-0.4,7.7-0.4
		c2.6,0,5.2,0.1,7.7,0.4c2.2,0.2,4.4,0.8,6.5,1.6c1.9,0.8,3.7,1.9,5.2,3.3c1.6,1.5,2.9,3.4,3.8,5.5c1.1,2.6,1.9,5.3,2.3,8.1
		c0.6,3.7,0.8,7.5,0.8,11.3v12.8c0,3.8-0.2,7.6-0.8,11.3c-0.4,2.8-1.2,5.5-2.3,8.2c-0.9,2.1-2.2,3.9-3.8,5.5
		c-1.5,1.4-3.2,2.5-5.1,3.3c-2.1,0.8-4.2,1.3-6.5,1.6C78.3-14.4,75.8-14.2,73.2-14.2z M73.1-71.3c-1.5,0-2.9,0.2-4.3,0.6
		c-1.2,0.4-2.2,1.2-3,2.3c-0.9,1.4-1.4,2.9-1.7,4.5c-0.4,2.5-0.6,5-0.5,7.5v11c0,2.5,0.1,5,0.5,7.5c0.2,1.6,0.8,3.2,1.7,4.6
		c0.7,1.1,1.8,1.9,3,2.3c1.4,0.5,2.9,0.7,4.3,0.6c1.4,0,2.9-0.2,4.3-0.6c1.2-0.4,2.2-1.2,3-2.3c0.8-1.1,1.4-2.6,1.7-4.6
		c0.4-2.5,0.6-5,0.5-7.5v-11c0-2.5-0.1-5-0.6-7.5c-0.4-1.9-1-3.5-1.8-4.5c-0.7-1-1.8-1.8-3-2.3C76-71.2,74.5-71.4,73.1-71.3z"/>
</g>
<g>
	<path id="Path_131" class="st1" d="M72.2,12.1L72.2,12.1c-1.2,0-2.4-0.1-3.7,0c-2.3,0.2-3.1,0.8-3.2,3.1c-0.1,2-0.1,4.1,0,6.1
		c0.1,1.6,1,2.6,2.7,2.6c2.8,0,5.7,0,8.6,0c1.4,0.1,2.6-0.9,2.7-2.3c0-0.1,0-0.2,0-0.3c0.1-2.2,0.1-4.4,0-6.6
		c-0.1-1.7-1.1-2.6-2.9-2.7C75,12.1,73.6,12.1,72.2,12.1z M72.3,29c-2.8-0.2-5.7-0.3-8.5-0.7c-3.1-0.4-4.6-1.9-4.8-4.9
		c-0.3-3.6-0.2-7.2,0-10.7c0.2-3,1.8-4.7,4.9-4.9c5.7-0.3,11.4-0.3,17,0c3.1,0.2,4.7,2,4.9,5.1c0.2,3.4,0.2,6.8,0,10.2
		c-0.2,3.1-1.7,4.7-4.9,5.1C78,28.7,75.1,28.8,72.3,29z"/>
	<path id="Path_132" class="st1" d="M96.3,23.5c3.6,0,7,0,10.3,0c1.6,0,2.5-1.1,2.6-2.7c0.2-1.9,0.1-3.7-0.1-5.6
		c-0.2-0.9-1.2-2.4-1.9-2.4c-3.6-0.2-7.2-0.1-10.9-0.1L96.3,23.5z M90.2,28.3V7.9c0.6-0.1,1.3-0.2,1.9-0.2c4.7,0,9.5,0,14.2,0
		c0.5,0,1,0,1.5,0c6.2,0.3,7.8,1.9,8,8c0.1,2.3,0,4.6-0.2,6.8c-0.3,3.2-1.6,4.8-4.8,5.2c-3.2,0.3-6.3,0.5-9.5,0.5
		C97.6,28.4,94,28.3,90.2,28.3z"/>
	<path id="Path_133" class="st1" d="M2.8,28.6v-4.7h18.9c1.9,0.2,2-3.1,0.2-3.3c-1.5-0.2-2.6-0.1-3.9-0.2c-3.7-0.2-7.3-0.3-11-0.6
		c-3.3-0.3-4.4-1.6-4.5-4.9C2.3,9.1,3.2,7.9,9.1,7.6c6-0.3,12-0.1,18.1-0.1v4.4H8.8c-1.6,0.2-1.9,3.3-0.2,3.5c1,0.1,2.1,0.1,3.1,0.1
		c3.7,0.2,7.5,0.3,11.3,0.5c3.9,0.2,5,1.4,5,5.3c0.1,5.7-0.8,6.9-6.4,7.2C15.4,28.8,9.3,28.6,2.8,28.6z"/>
	<path id="Path_134" class="st1" d="M136.3,20.8c-1.6-3.1-2.9-5.8-4.3-8.5c-0.2,0-0.5,0-0.7,0c-1.4,2.7-2.7,5.5-4.2,8.4H136.3z
		 M140.2,28.2c-0.6-1-1.1-1.9-1.7-3h-13.6c-0.5,0.9-1.1,1.9-1.7,3h-6.5c3.5-7,6.8-13.7,10.2-20.5h9.6c3.3,6.7,6.7,13.4,10.2,20.4
		H140.2z"/>
	<path id="Path_135" class="st1" d="M31.9,7.8h5.8V16l0.5,0.4c3.6-2.8,7.2-5.7,10.8-8.6h7.3c0.1,0.1,0.2,0.2,0.3,0.4
		c-3.5,2.8-7,5.5-10.4,8.2c3.8,3.9,7.4,7.6,11.4,11.8h-9.1c-2.1-2.3-4.6-5.1-7.2-8c-1.4,1-2.4,1.9-3.6,2.8v5.2h-5.9V7.8z"/>
	<path id="Path_136" class="st1" d="M12.7,5.9c-0.9-1.1-1.8-2.1-3-3.4h4.5c0.4,0.5,1,1.1,1.6,1.8c0.6-0.7,1.1-1.2,1.8-1.9h4.3
		c-1.1,1.3-2,2.4-2.9,3.5L12.7,5.9z"/>
</g>
</svg>
