<svg xmlns="http://www.w3.org/2000/svg" viewBox="0 0 90 90">
  <defs>
    <style>
      .cls-1 {
        fill: #fff;
      }
    </style>
  </defs>
  <g id="Group_1" data-name="Group 1" transform="translate(-13 -13)">
    <path id="Subtraction_4" data-name="Subtraction 4" class="cls-1" d="M45,90A45.012,45.012,0,0,1,27.484,3.536,45.012,45.012,0,0,1,62.517,86.464,44.719,44.719,0,0,1,45,90Zm-.6-69.6a24.012,24.012,0,1,0,16.968,7.033A23.733,23.733,0,0,0,44.4,20.4Zm0,47.372a23.4,23.4,0,1,1,16.519-6.854A23.21,23.21,0,0,1,44.4,67.772Zm.028-44.859h-.057A21.492,21.492,0,0,0,24.616,36.071a21.079,21.079,0,0,0-1.642,8.3,21.445,21.445,0,0,0,21.368,21.4H44.4A21.532,21.532,0,0,0,64.145,52.629,21.049,21.049,0,0,0,65.8,44.31a21.376,21.376,0,0,0-21.369-21.4Zm-.057,40.909a19.451,19.451,0,1,1,13.807-5.689A19.347,19.347,0,0,1,44.371,63.822Zm8.471-8.385c.221,0,.357.017.44.1.115.121.123.383.1.89a.616.616,0,0,0,.126.474.456.456,0,0,0,.349.133.823.823,0,0,0,.123-.009,9.674,9.674,0,0,0,5.237-2.574.559.559,0,0,0,.21-.411.628.628,0,0,0-.24-.456,10.094,10.094,0,0,0-5.147-2.514.967.967,0,0,0-.188-.02c-.312,0-.47.2-.47.59v.419c0,.4-.083.629-.509.629-.058,0-.111.006-.16.006-.461,0-.686-.183-.708-.575a1.954,1.954,0,0,1,.06-.718c.127-.586.273-1.142.429-1.73l.08-.3a24.3,24.3,0,0,0,.658-10.175,18.722,18.722,0,0,0-6.584-11.76,2.025,2.025,0,0,0-1.077-.449c-.417-.031-.836-.047-1.248-.047a16.2,16.2,0,0,0-4.617.676c-.223.083-.567.264-.6.419a1.022,1.022,0,0,0,.359.688c.318.318.654.634.978.94.592.558,1.2,1.135,1.746,1.754s1.037,1.279,1.517,1.921c.266.354.54.72.816,1.072a.3.3,0,0,1-.06.075.3.3,0,0,0-.06.075,1.27,1.27,0,0,0-.2-.017.735.735,0,0,1-.279-.042c-.112-.059-.226-.117-.341-.174a5.608,5.608,0,0,1-1.305-.814,32.41,32.41,0,0,0-5.446-4.01,1.573,1.573,0,0,0-.765-.235,1.381,1.381,0,0,0-.731.235,17.123,17.123,0,0,0-3.951,3.352c-.177.2-.283.357-.262.486s.167.237.412.381l.5.293c.684.4,1.389.805,2.04,1.263.811.574,1.608,1.184,2.379,1.773.4.3.806.617,1.212.92a.438.438,0,0,0-.03.21,2.591,2.591,0,0,0-.274.051,1.686,1.686,0,0,1-.361.055.586.586,0,0,1-.143-.016,6.156,6.156,0,0,1-1.407-.509,26.75,26.75,0,0,0-5.237-1.975,2.021,2.021,0,0,0-.492-.082c-.324,0-.479.182-.7.591a16.741,16.741,0,0,0-1.736,5.088c-.118.71.049.954.778,1.137l.471.107a23.988,23.988,0,0,1,3,.82,11.044,11.044,0,0,1,4.59,3,10.23,10.23,0,0,1,2.322,4.994l.009.059c.06.376.121.764-.248,1.048a.755.755,0,0,1-.471.171,1.643,1.643,0,0,1-.666-.2l-.857-.4-1.836-.856a1.8,1.8,0,0,0-.688-.18c-.79-.015-1.586-.022-2.365-.022s-1.574.007-2.364.022a.871.871,0,0,0-.718.389,1.1,1.1,0,0,0,.179.838c1.081,1.542,2.08,2.912,3.052,4.19a1.194,1.194,0,0,0,.6.328c.306.028.581.042.84.042a4.155,4.155,0,0,0,2.811-.91,1.17,1.17,0,0,1,.1-.061.542.542,0,0,0,.134-.089,2.078,2.078,0,0,1,1.318-.359H52.331c.114,0,.216,0,.307,0Zm-5.9-3.584a3.222,3.222,0,0,1-2.266-5.521,3.186,3.186,0,0,1,2.266-.943H47a3.24,3.24,0,0,1,3.21,3.263,3.143,3.143,0,0,1-.969,2.263A3.272,3.272,0,0,1,46.943,51.852Z" transform="translate(13 13)"/>
  </g>
</svg>
