<svg xmlns="http://www.w3.org/2000/svg" viewBox="0 0 90 90">
  <defs>
    <style>
      .cls-1 {
        fill: #fff;
      }
    </style>
  </defs>
  <path id="Subtraction_1" data-name="Subtraction 1" class="cls-1" d="M45,90A45.012,45.012,0,0,1,27.484,3.536,45.012,45.012,0,0,1,62.517,86.464,44.719,44.719,0,0,1,45,90ZM58.257,46.912A11.344,11.344,0,1,0,69.6,58.257,11.357,11.357,0,0,0,58.257,46.912ZM29.1,25.35a7.508,7.508,0,0,0-7.5,7.5V62.1a7.508,7.508,0,0,0,7.5,7.5H43.444a1.875,1.875,0,0,0,0-3.75H29.1a3.754,3.754,0,0,1-3.75-3.75V32.849A3.754,3.754,0,0,1,29.1,29.1h2.344v1.875a1.875,1.875,0,0,0,3.751,0V29.1h8.437v1.875a1.875,1.875,0,1,0,3.75,0V29.1h8.532v1.875a1.875,1.875,0,1,0,3.75,0V29.1H62.1a3.754,3.754,0,0,1,3.75,3.75V43.537a1.875,1.875,0,0,0,3.75,0V32.849a7.508,7.508,0,0,0-7.5-7.5H59.663V23.475a1.875,1.875,0,1,0-3.75,0V25.35H47.381V23.475a1.875,1.875,0,1,0-3.75,0V25.35H35.194V23.475a1.875,1.875,0,0,0-3.751,0V25.35Zm29.157,40.5a7.594,7.594,0,1,1,7.594-7.594A7.6,7.6,0,0,1,58.257,65.85Z"/>
</svg>
